<svg id="svg" version="1.1" xmlns="http://www.w3.org/2000/svg" xmlns:xlink="http://www.w3.org/1999/xlink" width="85" height="87.5" viewBox="0, 0, 400,345.9968602825746"><g id="svgg"><path id="path0" d="M178.893 18.046 C 170.295 18.931,163.503 20.126,154.844 22.277 C 151.763 23.043,150.691 23.351,146.886 24.561 C 139.949 26.767,139.262 27.009,136.626 28.165 C 135.931 28.470,135.285 28.720,135.190 28.720 C 135.095 28.720,133.639 29.353,131.955 30.127 C 130.271 30.900,128.348 31.776,127.682 32.073 C 125.875 32.879,119.404 36.131,117.820 37.029 C 117.059 37.461,115.735 38.204,114.879 38.680 C 114.022 39.156,112.908 39.834,112.403 40.188 C 111.898 40.541,111.386 40.830,111.265 40.830 C 110.482 40.830,98.927 49.540,93.426 54.277 C 82.375 63.792,75.002 71.538,68.845 80.100 C 67.615 81.810,66.268 83.679,65.852 84.252 C 64.090 86.678,58.366 95.654,57.305 97.655 C 55.470 101.115,52.732 106.596,51.899 108.478 C 51.477 109.429,50.855 110.830,50.517 111.592 C 50.179 112.353,49.251 114.689,48.455 116.782 C 47.658 118.875,46.874 120.900,46.713 121.280 C 45.814 123.393,43.567 131.114,42.383 136.159 C 41.892 138.253,41.349 140.510,41.177 141.176 C 40.413 144.128,39.870 147.321,39.237 152.595 C 38.483 158.876,38.179 179.139,38.747 185.294 C 39.650 195.082,40.229 199.455,41.178 203.633 C 41.351 204.394,41.736 206.107,42.035 207.439 C 42.852 211.085,43.289 212.883,43.592 213.841 C 43.742 214.317,44.056 215.407,44.290 216.263 C 44.524 217.119,44.829 218.131,44.968 218.512 C 45.107 218.893,45.667 220.606,46.212 222.318 C 47.059 224.981,48.772 229.601,49.805 232.007 C 49.969 232.388,50.335 233.244,50.620 233.910 C 53.390 240.388,57.082 247.623,59.750 251.800 C 60.382 252.790,60.900 253.763,60.900 253.963 C 60.900 254.162,61.055 254.325,61.246 254.325 C 61.436 254.325,61.592 254.493,61.592 254.699 C 61.592 255.274,69.256 266.155,70.590 267.474 C 70.686 267.569,71.181 268.192,71.690 268.858 C 72.199 269.524,72.976 270.484,73.418 270.992 C 73.860 271.499,74.521 272.278,74.887 272.722 C 81.333 280.543,93.945 292.006,103.633 298.848 C 107.152 301.333,115.116 306.574,115.373 306.574 C 115.450 306.574,116.656 307.248,118.051 308.071 C 121.159 309.903,124.396 311.578,128.720 313.589 C 134.153 316.116,136.121 316.961,138.581 317.823 C 139.533 318.157,140.459 318.565,140.640 318.731 C 140.821 318.896,141.318 319.031,141.744 319.031 C 142.171 319.031,142.604 319.168,142.708 319.336 C 142.812 319.503,143.249 319.722,143.680 319.821 C 144.111 319.920,146.332 320.578,148.616 321.283 C 150.900 321.987,153.352 322.703,154.066 322.874 C 154.779 323.044,155.947 323.322,156.661 323.492 C 158.319 323.885,164.800 325.141,166.609 325.420 C 170.002 325.942,172.340 326.270,174.913 326.588 C 176.436 326.775,178.071 327.022,178.547 327.135 C 182.275 328.025,199.528 327.943,207.958 326.995 C 216.463 326.040,227.025 324.058,233.564 322.192 C 234.230 322.002,235.164 321.745,235.640 321.622 C 236.850 321.308,243.970 319.014,244.810 318.668 C 245.190 318.511,246.981 317.815,248.789 317.122 C 250.597 316.428,252.736 315.562,253.543 315.197 C 254.350 314.832,255.107 314.533,255.225 314.533 C 256.141 314.533,270.232 307.130,276.471 303.372 C 277.894 302.515,286.271 296.729,287.127 296.011 C 287.451 295.740,288.667 294.775,289.828 293.866 C 297.768 287.657,308.088 277.357,314.014 269.728 C 314.585 268.993,315.449 267.913,315.935 267.327 C 317.030 266.008,320.691 260.878,321.881 258.997 C 322.121 258.616,322.403 258.227,322.506 258.131 C 323.097 257.587,330.796 244.324,330.796 243.851 C 330.796 243.729,331.233 242.883,331.767 241.970 C 332.302 241.058,333.017 239.611,333.356 238.754 C 333.695 237.898,334.410 236.263,334.944 235.121 C 335.479 233.979,336.645 231.099,337.535 228.720 C 338.426 226.341,339.279 224.083,339.431 223.702 C 339.774 222.843,341.387 217.781,341.691 216.609 C 341.925 215.707,342.354 214.172,342.949 212.111 C 343.624 209.773,344.919 203.977,345.384 201.211 C 345.577 200.069,345.879 198.356,346.057 197.405 C 346.431 195.399,346.863 192.046,347.438 186.678 C 347.974 181.678,347.975 162.898,347.440 157.612 C 346.639 149.705,345.493 142.987,343.573 134.948 C 343.414 134.282,343.187 133.270,343.069 132.699 C 342.951 132.128,342.728 131.349,342.574 130.969 C 342.420 130.588,342.101 129.576,341.865 128.720 C 340.852 125.032,340.428 123.666,340.120 123.102 C 339.940 122.771,339.792 122.263,339.792 121.972 C 339.792 121.682,339.646 121.174,339.468 120.843 C 339.289 120.513,338.729 119.074,338.223 117.647 C 337.262 114.937,336.989 114.267,335.504 110.976 C 335.008 109.876,334.602 108.889,334.602 108.782 C 334.602 108.520,329.766 98.881,329.415 98.443 C 329.263 98.253,328.707 97.318,328.180 96.367 C 327.653 95.415,326.925 94.107,326.563 93.459 C 324.496 89.766,317.997 80.442,314.135 75.630 C 308.243 68.288,297.508 57.610,290.087 51.709 C 284.343 47.141,275.839 41.265,271.062 38.561 C 264.030 34.582,257.252 31.223,251.903 29.069 C 248.502 27.699,248.278 27.605,247.669 27.295 C 247.339 27.127,246.786 26.990,246.441 26.990 C 246.096 26.990,245.665 26.858,245.484 26.696 C 245.304 26.535,243.287 25.816,241.003 25.100 C 238.720 24.383,236.581 23.658,236.250 23.490 C 235.920 23.321,235.334 23.183,234.948 23.183 C 234.562 23.183,233.976 23.047,233.646 22.881 C 233.115 22.613,231.631 22.249,226.471 21.120 C 224.848 20.765,221.650 20.152,219.204 19.727 C 209.527 18.045,187.734 17.136,178.893 18.046 M198.443 31.847 C 212.120 32.702,213.133 32.802,219.118 33.896 C 222.937 34.594,229.060 36.036,230.796 36.647 C 231.272 36.814,233.529 37.525,235.813 38.226 C 246.039 41.366,255.241 45.495,266.609 52.046 C 269.172 53.523,277.428 59.227,279.600 61.022 C 279.895 61.265,280.984 62.134,282.023 62.953 C 291.485 70.418,303.272 83.304,309.894 93.426 C 310.828 94.853,311.708 96.073,311.851 96.136 C 311.994 96.200,312.111 96.391,312.111 96.562 C 312.111 96.733,312.641 97.701,313.288 98.713 C 315.334 101.912,316.192 103.483,319.180 109.516 C 322.900 117.024,323.383 118.114,325.318 123.356 C 327.787 130.044,328.852 133.554,330.303 139.792 C 331.061 143.046,331.528 145.402,332.533 151.038 C 334.556 162.380,334.710 180.264,332.886 191.869 C 332.440 194.707,331.895 197.788,331.508 199.654 C 330.614 203.969,330.027 206.842,329.861 207.703 C 329.760 208.229,329.540 208.744,329.372 208.848 C 329.204 208.952,329.066 209.367,329.066 209.771 C 329.066 210.174,328.911 210.983,328.721 211.567 C 328.532 212.152,327.822 214.343,327.144 216.436 C 326.466 218.529,325.785 220.554,325.631 220.934 C 325.478 221.315,325.192 222.016,324.996 222.491 C 324.799 222.967,324.295 224.213,323.875 225.260 C 318.767 237.988,311.875 249.537,302.154 261.656 C 288.925 278.150,268.011 293.971,248.962 301.898 C 248.391 302.136,246.756 302.836,245.329 303.455 C 243.901 304.074,242.422 304.710,242.042 304.869 C 240.974 305.315,234.386 307.462,231.488 308.308 C 230.061 308.726,228.581 309.195,228.201 309.352 C 227.820 309.508,227.119 309.711,226.644 309.803 C 226.168 309.895,224.689 310.223,223.356 310.533 C 206.502 314.448,188.697 314.460,166.436 310.569 C 164.818 310.286,162.794 309.886,161.938 309.680 C 161.081 309.473,159.758 309.175,158.997 309.015 C 158.235 308.856,156.445 308.387,155.017 307.972 C 153.590 307.557,151.644 307.012,150.692 306.760 C 148.832 306.269,147.976 305.990,146.886 305.522 C 146.505 305.359,145.493 304.998,144.637 304.720 C 143.008 304.192,140.242 303.134,137.889 302.141 C 135.338 301.065,125.462 295.994,122.722 294.355 C 121.232 293.463,119.940 292.734,119.853 292.734 C 119.766 292.734,119.506 292.570,119.276 292.370 C 119.046 292.169,117.301 290.983,115.398 289.732 C 104.187 282.367,91.879 271.153,83.560 260.727 C 82.801 259.775,82.101 258.919,82.005 258.824 C 81.109 257.938,74.740 248.851,74.740 248.459 C 74.740 248.291,74.621 248.103,74.474 248.039 C 74.232 247.934,71.943 244.231,70.554 241.696 C 70.241 241.125,69.581 239.957,69.086 239.100 C 67.252 235.925,62.284 225.455,62.284 224.765 C 62.284 224.652,61.985 223.900,61.619 223.093 C 60.976 221.673,59.058 215.985,58.150 212.803 C 57.905 211.946,57.572 210.856,57.410 210.381 C 56.750 208.451,55.015 199.652,53.998 193.080 C 51.883 179.417,52.389 155.502,55.022 144.637 C 55.184 143.971,55.580 142.180,55.902 140.657 C 56.225 139.135,56.717 137.033,56.994 135.986 C 57.272 134.939,57.621 133.616,57.770 133.045 C 57.919 132.474,58.777 129.905,59.675 127.336 C 60.574 124.766,61.390 122.353,61.489 121.972 C 61.949 120.200,67.362 108.939,69.722 104.844 C 70.435 103.607,71.330 102.050,71.710 101.384 C 73.683 97.925,79.318 89.578,81.761 86.495 C 83.713 84.031,84.955 82.498,85.117 82.353 C 85.223 82.258,86.082 81.246,87.026 80.104 C 93.908 71.780,109.887 58.033,118.400 53.114 C 118.729 52.924,120.446 51.916,122.215 50.875 C 126.561 48.318,134.393 44.386,138.408 42.747 C 140.216 42.008,141.843 41.275,142.024 41.117 C 142.205 40.960,142.680 40.830,143.080 40.830 C 143.479 40.830,143.954 40.706,144.135 40.554 C 144.316 40.402,145.320 40.000,146.367 39.660 C 147.413 39.320,148.581 38.917,148.962 38.764 C 149.343 38.612,150.355 38.293,151.211 38.055 C 152.067 37.818,153.625 37.342,154.671 36.998 C 155.718 36.654,157.431 36.200,158.478 35.988 C 159.524 35.776,161.042 35.456,161.851 35.276 C 167.636 33.987,171.632 33.312,178.028 32.542 C 179.931 32.313,182.266 32.001,183.218 31.848 C 185.796 31.434,191.823 31.434,198.443 31.847 M182.180 45.531 C 181.799 45.622,180.787 45.866,179.931 46.072 C 177.600 46.632,174.622 47.525,173.183 48.095 C 168.883 49.797,165.678 51.382,161.634 53.806 C 154.223 58.249,145.735 68.382,140.910 78.547 C 137.693 85.324,135.939 90.494,134.042 98.789 C 133.737 100.121,133.340 101.834,133.158 102.595 C 132.110 106.997,130.711 115.444,130.294 119.896 C 129.397 129.468,128.358 131.317,125.128 129.094 C 116.739 123.322,106.529 127.863,103.017 138.927 C 101.928 142.356,101.730 143.556,101.730 146.713 C 101.730 149.706,101.855 150.529,102.861 154.152 C 103.968 158.138,106.248 161.452,109.948 164.452 C 112.655 166.648,112.992 167.495,112.068 169.793 C 111.490 171.231,111.219 171.933,110.364 174.221 C 109.658 176.109,109.106 177.487,108.285 179.412 C 108.122 179.792,107.587 181.349,107.094 182.872 C 106.601 184.394,106.049 185.911,105.867 186.241 C 105.685 186.571,105.536 187.080,105.536 187.370 C 105.536 187.661,105.394 188.169,105.219 188.500 C 104.808 189.278,103.946 192.270,103.251 195.329 C 100.815 206.055,101.387 211.892,105.686 220.179 C 111.137 230.685,124.048 246.045,137.019 257.452 C 140.681 260.672,141.151 261.215,141.165 262.244 C 141.202 264.869,144.106 269.998,146.425 271.533 C 147.166 272.023,148.012 272.979,148.313 273.667 C 152.508 283.239,155.640 287.658,161.253 291.926 C 175.623 302.853,207.083 303.649,222.982 293.487 C 227.389 290.671,235.640 281.456,235.640 279.351 C 235.640 279.166,236.856 276.434,237.769 274.567 C 238.141 273.806,239.422 272.143,240.615 270.872 C 242.971 268.361,244.983 264.976,244.983 263.522 C 244.983 261.834,245.911 260.362,248.283 258.288 C 264.917 243.746,279.194 225.920,283.197 214.696 C 283.534 213.750,283.988 212.602,284.206 212.145 C 284.747 211.010,284.684 201.736,284.119 199.308 C 283.875 198.261,283.440 196.393,283.152 195.156 C 282.587 192.736,281.726 190.065,279.748 184.602 C 279.059 182.699,278.214 180.285,277.870 179.239 C 277.014 176.632,275.622 173.315,274.148 170.372 C 272.586 167.253,272.717 166.612,275.264 164.922 C 282.062 160.408,284.558 155.471,284.335 146.981 C 283.891 130.090,273.091 122.136,260.614 129.511 C 259.410 130.222,258.296 130.724,258.138 130.627 C 257.504 130.235,256.778 126.611,256.611 123.010 C 256.369 117.780,254.420 106.932,252.010 97.405 C 248.754 84.533,242.074 70.883,234.860 62.361 C 232.876 60.018,226.814 54.671,226.141 54.671 C 226.044 54.671,225.144 54.159,224.142 53.533 C 219.471 50.619,212.703 48.102,205.190 46.488 C 201.346 45.661,184.540 44.962,182.180 45.531 M118.765 135.182 C 121.899 136.413,125.606 139.879,125.606 141.579 C 125.606 143.109,123.494 143.549,122.491 142.229 C 120.591 139.727,115.951 140.703,113.889 144.039 C 112.424 146.410,113.381 147.070,116.155 145.601 C 120.337 143.386,122.053 148.269,119.202 154.273 C 117.026 158.855,116.582 159.008,113.771 156.142 C 108.634 150.902,108.451 144.408,113.240 137.262 C 115.068 134.534,116.113 134.141,118.765 135.182 M272.232 136.272 C 272.946 137.000,273.895 138.362,274.343 139.299 C 274.790 140.237,275.285 141.255,275.442 141.563 C 278.526 147.610,272.982 161.151,268.967 157.379 C 268.526 156.965,268.166 156.483,268.166 156.308 C 268.166 156.133,267.878 155.576,267.526 155.071 C 263.820 149.754,265.994 143.470,270.764 145.712 C 273.164 146.840,273.972 146.138,272.825 143.921 C 271.175 140.730,266.797 139.803,263.882 142.028 L 262.313 143.226 261.606 142.327 C 260.605 141.054,260.656 140.923,263.062 138.596 C 267.163 134.631,269.935 133.929,272.232 136.272 M157.137 150.864 C 158.969 151.041,162.083 151.592,164.057 152.087 C 167.646 152.987,168.061 153.098,171.626 154.117 C 182.756 157.298,185.771 157.925,191.869 158.321 C 195.237 158.540,201.483 158.075,203.633 157.445 C 204.204 157.277,205.372 156.956,206.228 156.731 C 207.085 156.505,208.175 156.194,208.651 156.039 C 209.126 155.883,211.306 155.195,213.495 154.508 C 215.683 153.821,217.785 153.132,218.166 152.975 C 222.365 151.251,225.659 150.813,233.564 150.929 C 240.616 151.032,241.094 151.082,242.734 151.877 C 253.901 157.295,266.631 175.400,262.803 180.419 C 262.327 181.043,261.938 181.674,261.938 181.823 C 261.938 182.473,254.128 192.461,252.459 193.945 C 251.474 194.821,248.336 198.853,248.046 199.615 C 247.642 200.678,247.831 201.566,249.565 206.747 C 254.452 221.351,253.506 226.282,243.141 240.225 C 239.824 244.688,240.401 244.637,237.321 240.744 C 235.928 238.984,234.204 236.920,233.488 236.159 C 232.773 235.398,232.186 234.658,232.184 234.516 C 232.182 234.373,231.946 234.256,231.661 234.256 C 230.855 234.256,231.433 236.358,233.899 242.388 C 234.236 243.210,235.903 248.796,236.326 250.519 C 236.490 251.185,236.801 252.403,237.018 253.226 C 239.409 262.282,235.490 268.166,227.069 268.166 C 221.439 268.166,220.207 268.993,223.438 270.604 C 229.181 273.468,229.272 274.121,224.724 279.841 C 218.838 287.245,213.507 289.755,201.038 290.993 C 192.173 291.873,178.181 290.953,174.744 289.265 C 174.456 289.123,173.754 288.804,173.183 288.554 C 164.345 284.691,155.606 274.380,159.516 272.427 C 159.991 272.189,161.425 271.518,162.701 270.935 C 165.761 269.538,165.621 268.858,162.273 268.858 C 151.413 268.858,147.002 263.490,149.333 253.114 C 150.666 247.182,151.072 245.872,153.325 240.219 C 154.256 237.885,155.017 235.557,155.017 235.045 L 155.017 234.116 153.591 235.483 C 152.807 236.236,151.040 238.253,149.665 239.965 C 145.651 244.966,146.564 245.253,141.216 237.304 C 134.122 226.760,132.591 221.078,134.799 213.495 C 135.582 210.808,136.005 209.292,136.225 208.386 C 136.329 207.955,136.552 207.517,136.720 207.414 C 136.887 207.310,137.024 206.855,137.024 206.401 C 137.024 205.948,137.166 205.490,137.339 205.383 C 137.512 205.276,137.842 204.137,138.071 202.852 C 138.641 199.666,138.387 199.166,133.011 192.860 C 123.306 181.476,121.614 178.210,123.485 174.476 C 123.650 174.146,124.131 173.097,124.553 172.145 C 130.176 159.468,142.921 149.454,152.249 150.385 C 153.106 150.471,155.305 150.686,157.137 150.864 M146.713 165.736 C 143.219 166.483,138.590 170.955,137.985 174.167 C 137.774 175.286,137.996 175.288,140.854 174.188 C 142.969 173.374,143.412 173.625,144.718 176.374 C 146.745 180.644,152.791 185.803,157.019 186.872 C 159.248 187.435,159.299 188.100,157.192 189.100 C 154.461 190.397,155.207 190.776,159.948 190.500 C 168.020 190.031,171.748 188.437,178.155 182.716 C 181.962 179.316,181.692 179.431,183.999 180.228 C 189.501 182.130,197.353 182.158,201.557 180.290 C 204.444 179.007,204.183 178.920,207.889 182.419 C 209.765 184.191,211.911 185.967,212.657 186.365 C 213.403 186.764,214.559 187.399,215.225 187.775 C 215.891 188.152,217.292 188.741,218.339 189.083 C 219.386 189.426,220.582 189.835,220.997 189.991 C 222.340 190.496,230.321 190.801,230.595 190.357 C 230.735 190.131,230.570 189.863,230.212 189.734 C 229.156 189.352,227.682 188.212,227.682 187.777 C 227.682 187.404,229.897 186.505,230.816 186.505 C 233.208 186.505,240.036 179.909,242.308 175.404 C 243.173 173.691,244.424 173.438,246.550 174.546 C 248.915 175.780,249.148 175.373,247.664 172.600 C 244.920 167.468,242.228 165.744,236.961 165.744 C 233.877 165.744,232.829 165.884,229.066 166.801 C 227.386 167.210,221.775 168.862,220.934 169.194 C 220.167 169.498,216.515 170.601,213.322 171.494 C 210.550 172.269,205.198 172.275,203.157 171.505 C 201.033 170.704,200.216 170.737,200.680 171.604 C 201.789 173.677,200.523 174.976,197.214 175.158 C 195.504 175.252,195.360 175.199,195.157 174.394 C 194.895 173.354,194.354 173.348,191.618 174.357 C 187.902 175.726,185.831 175.025,185.818 172.394 C 185.812 170.943,185.163 170.692,183.280 171.411 C 180.698 172.397,174.615 172.034,169.550 170.592 C 167.460 169.997,162.212 168.260,159.690 167.329 C 158.359 166.838,156.864 166.436,156.368 166.436 C 155.872 166.436,155.015 166.293,154.463 166.118 C 153.045 165.669,148.154 165.428,146.713 165.736 M233.709 172.182 C 235.093 172.713,234.096 175.858,231.822 178.131 C 227.462 182.491,220.027 183.170,216.716 179.511 C 216.030 178.754,217.150 177.449,218.826 177.050 C 219.756 176.830,229.600 173.344,233.103 171.995 C 233.135 171.982,233.408 172.067,233.709 172.182 M156.646 173.347 C 157.445 173.733,158.320 174.048,158.592 174.048 C 159.162 174.048,162.328 175.266,164.096 176.165 C 164.426 176.333,164.934 176.471,165.225 176.471 C 165.516 176.471,166.024 176.617,166.354 176.796 C 166.685 176.975,167.364 177.206,167.863 177.310 C 168.362 177.415,169.141 177.815,169.593 178.200 L 170.415 178.899 169.305 179.860 C 165.484 183.170,159.418 182.459,154.495 178.126 C 149.871 174.055,151.343 170.785,156.646 173.347 M181.315 190.277 C 180.458 190.612,178.870 191.457,177.785 192.156 C 176.700 192.854,175.662 193.426,175.479 193.426 C 173.374 193.426,168.051 197.787,164.760 202.208 C 155.016 215.295,154.497 223.499,163.149 227.644 C 166.706 229.348,167.197 229.471,171.203 229.669 C 176.218 229.916,176.144 229.541,170.665 226.923 C 162.368 222.958,161.476 220.978,164.741 213.775 C 168.712 205.017,173.690 199.516,177.869 199.269 C 179.292 199.184,182.038 199.620,182.526 200.007 C 183.165 200.514,186.060 200.786,186.321 200.363 C 186.555 199.986,181.845 195.156,181.244 195.156 C 180.049 195.156,182.569 192.317,184.776 191.176 C 187.197 189.924,184.205 189.148,181.315 190.277 M200.427 190.052 C 200.504 190.290,201.320 190.982,202.241 191.591 C 205.241 193.573,205.242 194.307,202.249 197.630 C 199.881 200.259,199.409 201.301,200.779 200.879 C 207.509 198.802,210.736 198.885,213.447 201.204 C 214.284 201.920,217.301 205.684,217.301 206.012 C 217.301 206.112,217.769 206.887,218.340 207.733 C 218.912 208.580,220.128 210.729,221.043 212.509 C 225.300 220.785,224.549 222.346,213.579 228.019 C 210.337 229.695,210.441 229.903,214.392 229.646 C 223.102 229.081,229.783 224.661,229.752 219.485 C 229.709 212.533,220.452 198.138,214.014 195.013 C 212.872 194.459,211.667 193.875,211.337 193.716 C 211.006 193.556,210.536 193.426,210.291 193.426 C 210.046 193.426,209.305 192.985,208.643 192.447 C 205.896 190.214,199.920 188.472,200.427 190.052 M172.801 212.605 C 171.765 213.056,169.991 215.089,170.335 215.433 C 170.427 215.525,171.106 215.684,171.843 215.786 C 173.765 216.053,174.677 216.557,176.738 218.490 C 180.494 222.013,182.293 222.731,184.504 221.588 C 185.326 221.163,185.999 221.093,187.341 221.294 C 189.781 221.660,196.370 221.668,198.376 221.307 C 199.666 221.075,200.447 221.147,201.860 221.627 C 204.653 222.576,205.793 222.209,208.756 219.405 C 211.398 216.906,212.580 216.157,214.533 215.745 C 216.344 215.363,216.405 215.239,215.340 214.118 C 212.675 211.314,210.542 211.367,201.211 214.465 C 193.936 216.881,190.783 216.769,183.564 213.838 C 179.432 212.161,174.990 211.652,172.801 212.605 M192.125 231.142 C 190.456 235.449,191.808 244.013,194.211 244.354 C 197.595 244.835,198.770 243.568,196.727 241.642 C 195.387 240.378,194.118 237.868,194.118 236.481 C 194.118 235.406,193.467 232.641,192.902 231.315 L 192.460 230.277 192.125 231.142 M187.370 247.739 C 186.990 247.909,186.270 248.059,185.771 248.073 C 184.586 248.104,178.286 250.174,175.426 251.471 C 174.193 252.030,172.016 252.914,170.588 253.434 C 169.161 253.955,167.682 254.508,167.301 254.664 C 165.555 255.379,164.315 255.714,161.419 256.255 C 155.919 257.281,155.446 257.694,158.149 259.113 C 159.793 259.976,166.811 260.040,169.377 259.215 C 169.948 259.032,170.960 258.734,171.626 258.553 C 174.094 257.884,175.666 257.435,178.028 256.726 C 184.224 254.864,183.866 254.909,192.907 254.876 C 198.923 254.854,201.979 254.976,202.941 255.275 C 206.323 256.329,211.766 257.885,213.668 258.342 C 214.810 258.617,216.238 258.999,216.842 259.191 C 218.337 259.668,224.435 260.012,226.334 259.727 C 229.871 259.197,231.006 257.369,228.079 256.916 C 222.890 256.112,219.667 255.208,215.626 253.421 C 214.549 252.945,213.356 252.424,212.976 252.264 C 212.595 252.103,211.546 251.645,210.644 251.246 C 209.742 250.846,208.845 250.519,208.650 250.519 C 208.455 250.519,208.025 250.368,207.694 250.183 C 204.239 248.250,190.046 246.543,187.370 247.739 " stroke="none" fill="#7c14b4" fill-rule="evenodd"></path></g></svg>